<svg xmlns="http://www.w3.org/2000/svg" viewBox="0 0 224 224" width="30" height="30">
    <g fill="none" stroke-miterlimit="10" font-family="none" font-size="none"
       style="mix-blend-mode:normal">
        <path d="M0 224V0h224v224z"/>
        <path d="M97.067 22.4C55.917 22.4 22.4 55.918 22.4 97.067c0 41.148 33.518 74.666 74.667 74.666 17.894 0 34.327-6.354 47.206-16.902l44.581 44.582a7.467 7.467 0 1 0 10.559-10.559l-44.582-44.581c10.548-12.88 16.902-29.312 16.902-47.206 0-41.15-33.518-74.667-74.666-74.667zm0 14.933c33.078 0 59.733 26.655 59.733 59.734 0 33.078-26.655 59.733-59.733 59.733-33.079 0-59.734-26.655-59.734-59.733 0-33.079 26.655-59.734 59.734-59.734z"
              fill="#8c8f92"/>
    </g>
</svg>
